<svg xmlns="http://www.w3.org/2000/svg" width="1000" height="600"><ellipse cx="350" cy="355" opacity=".2" rx="70" ry="15"/><circle cx="350" cy="250" r="100" fill="orange"/><circle cx="340" cy="220" r="40" fill="#fff"/><circle cx="390" cy="220" r="40" fill="#fff"/><circle cx="400" cy="220" r="10"/><circle cx="350" cy="220" r="10"/><ellipse cx="350" cy="300" fill="red" rx="20" ry="10"/><circle cx="370" cy="255" r="15"/><ellipse cx="210" cy="250" fill="orange" rx="70" ry="25" transform="rotate(20 210 250)"/><path fill="#fff" d="m180 220-10 35-23-28z"/><path fill="orange" d="m360 152 35-17 13 35z"/><path d="m370 152 23-12 7 23z"/><path fill="orange" d="M270 190v-40l35 10z"/><path d="M275 185v-30l25 10z"/><ellipse cx="650" cy="355" opacity=".2" rx="70" ry="15"/><circle cx="650" cy="250" r="100" fill="#ff0"/><ellipse cx="610" cy="220" fill="#fff" rx="40" ry="45"/><ellipse cx="665" cy="220" fill="#fff" rx="40" ry="45"/><circle cx="605" cy="220" r="10"/><circle cx="660" cy="220" r="10"/><ellipse cx="635" cy="300" fill="red" rx="10" ry="20"/></svg>